<svg xmlns="http://www.w3.org/2000/svg" xmlns:xlink="http://www.w3.org/1999/xlink" viewBox="0 0 275.68 45.81"><defs><style>.cls-1{fill:url(#New_Gradient_Swatch_4);}</style><linearGradient id="New_Gradient_Swatch_4" x1="178.02" y1="92.51" x2="97.66" y2="-46.7" gradientUnits="userSpaceOnUse"><stop offset="0" stop-color="#86c877"/><stop offset="0.13" stop-color="#67c280"/><stop offset="0.4" stop-color="#18b498"/><stop offset="0.49" stop-color="#00af9f"/><stop offset="1" stop-color="#30368f"/></linearGradient></defs><title>Asset 1</title><g id="Layer_2" data-name="Layer 2"><g id="content"><path class="cls-1" d="M19.44,29.12a1.51,1.51,0,0,1,.9-2.74,1.5,1.5,0,0,1,.95.29,8,8,0,0,0,5.17,1.9c2,0,3.27-.95,3.27-2.32V26.2c0-1.32-.74-2-4.17-2.82-3.93-.95-6.14-2.11-6.14-5.51v-.05c0-3.16,2.64-5.35,6.3-5.35a10.16,10.16,0,0,1,5.85,1.71,1.46,1.46,0,0,1,.71,1.29A1.51,1.51,0,0,1,30.75,17a1.56,1.56,0,0,1-.84-.24,7.68,7.68,0,0,0-4.24-1.4c-1.9,0-3,1-3,2.19v.05c0,1.42.84,2.06,4.4,2.9,3.9.95,5.91,2.35,5.91,5.4v.05c0,3.45-2.72,5.51-6.59,5.51A11.49,11.49,0,0,1,19.44,29.12ZM35.1,18.71a1.58,1.58,0,0,1,1.58-1.61,1.6,1.6,0,0,1,1.61,1.61v.87A5.57,5.57,0,0,1,43,17c3.27,0,6.46,2.58,6.46,7.22v.05c0,4.61-3.16,7.22-6.46,7.22A5.69,5.69,0,0,1,38.29,29v4.93a1.6,1.6,0,0,1-3.19,0Zm11.15,5.54v-.05c0-2.69-1.82-4.46-4-4.46a4.2,4.2,0,0,0-4.06,4.46v.05a4.2,4.2,0,0,0,4.06,4.46C44.46,28.7,46.26,27,46.26,24.25Zm5.22-5.54a1.58,1.58,0,0,1,1.58-1.61,1.6,1.6,0,0,1,1.61,1.61v1.42c.74-1.74,2.11-3.06,3.51-3.06a1.48,1.48,0,0,1,1.58,1.58,1.5,1.5,0,0,1-1.27,1.53c-2.27.4-3.82,2.14-3.82,5.43v4.11a1.59,1.59,0,0,1-1.61,1.58,1.57,1.57,0,0,1-1.58-1.58ZM61,13.52a1.84,1.84,0,0,1,3.64,0v.16a1.84,1.84,0,0,1-3.64,0Zm.24,5.19a1.58,1.58,0,0,1,1.58-1.61,1.6,1.6,0,0,1,1.61,1.61v11a1.59,1.59,0,0,1-3.19,0Zm6,0a1.58,1.58,0,0,1,1.58-1.61,1.6,1.6,0,0,1,1.61,1.61v.69A5,5,0,0,1,74.81,17c3.14,0,5,2.11,5,5.32v7.44a1.55,1.55,0,0,1-1.58,1.58,1.58,1.58,0,0,1-1.61-1.58V23.27c0-2.16-1.08-3.4-3-3.4s-3.14,1.29-3.14,3.45v6.41a1.59,1.59,0,0,1-3.19,0Zm15.85,15.5a1.31,1.31,0,0,1-.9-1.27,1.34,1.34,0,0,1,1.34-1.32,1.25,1.25,0,0,1,.58.13,8.52,8.52,0,0,0,4.27,1.11c2.85,0,4.4-1.48,4.4-4.27V27.52a5.83,5.83,0,0,1-4.9,2.56,6.26,6.26,0,0,1-6.33-6.51v-.05A6.28,6.28,0,0,1,87.91,17a6,6,0,0,1,4.88,2.37v-.66a1.59,1.59,0,1,1,3.19,0v9.62a7.12,7.12,0,0,1-1.77,5.25c-1.27,1.26-3.22,1.87-5.72,1.87A12,12,0,0,1,83.11,34.21Zm9.73-10.68v-.05a3.89,3.89,0,0,0-4.09-3.82,3.76,3.76,0,0,0-4,3.82v.05a3.79,3.79,0,0,0,4,3.82A3.89,3.89,0,0,0,92.84,23.53ZM98.22,22V22a9.65,9.65,0,0,1,19.3-.05V22a9.65,9.65,0,0,1-19.3.05Zm15.9,0V22a6.32,6.32,0,0,0-6.27-6.56,6.24,6.24,0,0,0-6.22,6.51V22a6.3,6.3,0,0,0,6.27,6.54A6.21,6.21,0,0,0,114.12,22Zm5.64-3.3a1.58,1.58,0,0,1,1.58-1.61,1.6,1.6,0,0,1,1.61,1.61v.69A5,5,0,0,1,127.3,17c3.14,0,5,2.11,5,5.32v7.44a1.55,1.55,0,0,1-1.58,1.58,1.58,1.58,0,0,1-1.61-1.58V23.27c0-2.16-1.08-3.4-3-3.4s-3.14,1.29-3.14,3.45v6.41a1.6,1.6,0,0,1-3.19,0ZM141.17,31.5A7,7,0,0,1,134,24.27v-.05c0-4,2.82-7.25,6.8-7.25a6.58,6.58,0,0,1,6.62,6.85,1.49,1.49,0,0,1-1.5,1.53h-8.73a3.89,3.89,0,0,0,4,3.53,5,5,0,0,0,3.3-1.21,1.19,1.19,0,0,1,.82-.29,1.26,1.26,0,0,1,1.27,1.29,1.39,1.39,0,0,1-.42,1A7.15,7.15,0,0,1,141.17,31.5Zm3.16-8.25c-.21-2.06-1.42-3.66-3.53-3.66-2,0-3.32,1.5-3.61,3.66Zm12-8.88A1.61,1.61,0,0,1,158,12.73h5.64c4.32,0,7,2.45,7,6.17v.05c0,4.14-3.32,6.3-7.38,6.3h-3.67V29.7a1.62,1.62,0,0,1-3.24,0Zm7,8c2.45,0,4-1.37,4-3.3V19c0-2.16-1.56-3.29-4-3.29h-3.77v6.64Zm9.1-8.94A1.57,1.57,0,0,1,174,11.8a1.59,1.59,0,0,1,1.61,1.58V29.73a1.59,1.59,0,0,1-3.19,0Zm5.11,13.79v-.05c0-3,2.35-4.48,5.75-4.48a11.63,11.63,0,0,1,3.74.58v-.34c0-2-1.21-3-3.45-3a8.27,8.27,0,0,0-3.08.55,1.79,1.79,0,0,1-.5.08,1.33,1.33,0,0,1-1.34-1.32,1.39,1.39,0,0,1,.87-1.27,11.94,11.94,0,0,1,4.48-.82,6.24,6.24,0,0,1,4.61,1.56,5.78,5.78,0,0,1,1.5,4.3v6.85a1.52,1.52,0,0,1-1.56,1.53A1.44,1.44,0,0,1,187,30v-.53a5.66,5.66,0,0,1-4.53,2C179.89,31.47,177.57,30,177.57,27.17Zm9.54-1v-.95a8.84,8.84,0,0,0-3.16-.55c-2.06,0-3.27.87-3.27,2.32V27c0,1.34,1.19,2.11,2.72,2.11C185.51,29.15,187.12,27.94,187.12,26.17Zm6.06,1.16V20h-.53a1.37,1.37,0,1,1,0-2.74h.53V14.89a1.59,1.59,0,0,1,3.19,0v2.37h2.5a1.37,1.37,0,1,1,0,2.74h-2.5v6.83a1.52,1.52,0,0,0,1.71,1.74,7.53,7.53,0,0,0,.79-.08,1.34,1.34,0,0,1,1.34,1.32,1.37,1.37,0,0,1-.84,1.24,6.33,6.33,0,0,1-2.19.37C194.84,31.42,193.18,30.39,193.18,27.33ZM202.75,20h-.55a1.33,1.33,0,0,1-1.34-1.32,1.35,1.35,0,0,1,1.34-1.34h.55v-1a4.71,4.71,0,0,1,1.13-3.43A4.22,4.22,0,0,1,207,11.78a9.21,9.21,0,0,1,1.61.13,1.33,1.33,0,0,1-.24,2.64,5.06,5.06,0,0,0-.66-.05c-1.21,0-1.85.66-1.85,2.11v.76h2.48a1.31,1.31,0,0,1,1.34,1.32A1.33,1.33,0,0,1,208.37,20h-2.43v9.73a1.59,1.59,0,0,1-3.19,0Zm6.85,4.3v-.05a7.42,7.42,0,0,1,14.84-.05v.05A7.28,7.28,0,0,1,217,31.5,7.2,7.2,0,0,1,209.61,24.3Zm11.65,0v-.05A4.3,4.3,0,0,0,217,19.76a4.18,4.18,0,0,0-4.19,4.43v.05A4.29,4.29,0,0,0,217,28.7,4.18,4.18,0,0,0,221.26,24.3Zm5.11-5.59A1.58,1.58,0,0,1,228,17.1a1.6,1.6,0,0,1,1.61,1.61v1.42c.74-1.74,2.11-3.06,3.51-3.06a1.48,1.48,0,0,1,1.58,1.58,1.5,1.5,0,0,1-1.27,1.53c-2.27.4-3.82,2.14-3.82,5.43v4.11A1.59,1.59,0,0,1,228,31.31a1.57,1.57,0,0,1-1.58-1.58Zm9.57,0a1.58,1.58,0,0,1,1.58-1.61,1.6,1.6,0,0,1,1.61,1.61v.66a5,5,0,0,1,4.24-2.4,4.42,4.42,0,0,1,4.17,2.45A5.6,5.6,0,0,1,252.24,17c3,0,4.88,1.92,4.88,5.32v7.44a1.55,1.55,0,0,1-1.58,1.58,1.58,1.58,0,0,1-1.61-1.58V23.27c0-2.21-1-3.4-2.82-3.4s-3,1.21-3,3.45v6.41a1.59,1.59,0,0,1-3.19,0V23.24c0-2.16-1.05-3.37-2.82-3.37s-3,1.32-3,3.45v6.41a1.59,1.59,0,0,1-3.19,0Zm16.83,27.1H22.9A22.91,22.91,0,0,1,22.9,0H252.77a22.91,22.91,0,0,1,0,45.81ZM22.9,1.12a21.78,21.78,0,0,0,0,43.56H252.77a21.78,21.78,0,0,0,0-43.56Z"/></g></g></svg>